<?xml version="1.0" standalone="no"?><!DOCTYPE svg PUBLIC "-//W3C//DTD SVG 1.1//EN" "http://www.w3.org/Graphics/SVG/1.1/DTD/svg11.dtd"><svg t="1579017741999" class="icon" viewBox="0 0 1024 1024" version="1.1" xmlns="http://www.w3.org/2000/svg" p-id="6578" xmlns:xlink="http://www.w3.org/1999/xlink" width="256" height="256"><defs><style type="text/css"></style></defs><path d="M508.885333 128h6.229334c77.824 0 140.501333 0 189.866666 6.613333 51.2 6.912 94.293333 21.632 128.554667 55.893334 34.218667 34.218667 48.938667 77.354667 55.850667 128.554666C896 368.384 896 431.061333 896 508.885333v6.229334c0 77.824 0 140.501333-6.613333 189.866666-6.912 51.2-21.632 94.293333-55.893334 128.554667-34.218667 34.218667-77.354667 48.938667-128.554666 55.850667-49.322667 6.613333-112 6.613333-189.824 6.613333h-6.229334c-77.824 0-140.501333 0-189.866666-6.613333-51.2-6.912-94.293333-21.632-128.554667-55.893334-34.218667-34.218667-48.938667-77.354667-55.850667-128.554666C128 655.616 128 592.938667 128 515.114667v-6.229334c0-77.824 0-140.501333 6.613333-189.866666 6.912-51.2 21.632-94.293333 55.893334-128.554667 34.218667-34.218667 77.354667-48.938667 128.554666-55.850667C368.384 128 431.061333 128 508.885333 128zM330.410667 219.221333c-41.728 5.589333-63.829333 15.872-79.573334 31.573334-15.786667 15.786667-26.026667 37.888-31.616 79.616C213.418667 373.376 213.333333 430.336 213.333333 512c0 81.664 0.085333 138.624 5.888 181.589333 5.589333 41.728 15.872 63.829333 31.573334 79.573334 15.786667 15.786667 37.888 26.026667 79.616 31.658666C373.376 810.538667 430.336 810.666667 512 810.666667c81.664 0 138.624-0.085333 181.589333-5.888 41.728-5.589333 63.829333-15.872 79.573334-31.573334 15.786667-15.786667 26.026667-37.888 31.658666-79.616 5.76-42.965333 5.845333-99.925333 5.845334-181.589333 0-81.664-0.085333-138.624-5.888-181.589333-5.589333-41.728-15.872-63.829333-31.573334-79.573334-15.786667-15.786667-37.888-26.026667-79.616-31.616C650.624 213.418667 593.664 213.333333 512 213.333333c-81.664 0-138.624 0.085333-181.589333 5.888z m55.466666 81.28a42.666667 42.666667 0 0 1 47.829334 17.152l149.418666 224.085334V341.333333a42.666667 42.666667 0 1 1 85.333334 0v341.333334a42.666667 42.666667 0 0 1-78.165334 23.68l-149.418666-224.085334V682.666667a42.666667 42.666667 0 1 1-85.333334 0V341.333333a42.666667 42.666667 0 0 1 30.293334-40.832z" p-id="6579" fill="#bfcbd9"></path></svg>