<?xml version="1.0" standalone="no"?><!DOCTYPE svg PUBLIC "-//W3C//DTD SVG 1.1//EN" "http://www.w3.org/Graphics/SVG/1.1/DTD/svg11.dtd"><svg t="1579017988147" class="icon" viewBox="0 0 1024 1024" version="1.1" xmlns="http://www.w3.org/2000/svg" p-id="10250" xmlns:xlink="http://www.w3.org/1999/xlink" width="256" height="256"><defs><style type="text/css"></style></defs><path d="M859.42 282.44H337.033l-85.23-78.456H129.858V791.02c0 13.367 15.545 24.204 34.72 24.204h694.84c19.176 0 34.72-10.837 34.72-24.204V306.645c0-13.367-15.544-24.204-34.72-24.204zM603.594 519.979v52.948H500.724V442.069h50.457v77.909h52.414z m-61.872 204.897c-1.899 0-3.74-0.226-5.625-0.284v-38.57c1.881 0.074 3.726 0.285 5.625 0.285 78.548 0 142.224-63.675 142.224-142.223S620.27 401.86 541.723 401.86c-70.281 0-128.456 51.042-139.964 118.039h61.094l-87.726 87.726-87.728-87.726h75.355c11.85-88.38 87.344-156.609 178.968-156.609 99.85 0 180.793 80.944 180.793 180.793s-80.943 180.792-180.792 180.792z" p-id="10251" fill="#bfcbd9"></path></svg>